
        <svg width="400px" height="400px" viewBox="0 0 400 400" version="1.1" xmlns="http://www.w3.org/2000/svg" xmlns:xlink="http://www.w3.org/1999/xlink">
          <defs>
            <linearGradient x1="0%" y1="50%" x2="100%" y2="50%" id="shadeGradientLight">
              <stop stop-color="#000000" offset="0%"></stop>
              <stop stop-color="#000000" offset="16.67%"></stop>
              <stop stop-color="#000000" offset="33.33%"></stop>
              <stop stop-color="#000000" offset="50%"></stop>
              <stop stop-color="#000000" offset="66.67%"></stop>
              <stop stop-color="#000000" offset="83.33%"></stop>
              <stop stop-color="#000000" offset="100%"></stop>
            </linearGradient>
            <linearGradient x1="0%" y1="50%" x2="100%" y2="50%" id="shadeGradientDark">
              <stop stop-color="#2c2d35" offset="0%"></stop>
              <stop stop-color="#494b51" offset="16.67%"></stop>
              <stop stop-color="#67686d" offset="33.33%"></stop>
              <stop stop-color="#85868a" offset="50%"></stop>
              <stop stop-color="#a3a3a6" offset="66.67%"></stop>
              <stop stop-color="#c0c1c2" offset="83.33%"></stop>
              <stop stop-color="#dedede" offset="100%"></stop>
            </linearGradient>
          </defs>
          <g id="light">
            <rect fill="#fffbf3" x="0" y="0" width="400" height="200"></rect>
            <rect fill="#000000" x="28" y="28" width="74" height="37"></rect>
            <rect fill="#000000" x="118" y="28" width="74" height="37"></rect>
            <rect fill="#000000" x="208" y="28" width="74" height="37"></rect>
            <rect fill="#000000" x="298" y="28" width="74" height="37"></rect>
            <rect fill="#000000" x="28" y="81" width="74" height="37"></rect>
            <rect fill="#000000" x="118" y="81" width="74" height="37"></rect>
            <rect fill="#000000" x="208" y="81" width="74" height="37"></rect>
            <rect fill="#000000" x="298" y="81" width="74" height="37"></rect>
            <rect fill="url(#shadeGradientLight)" x="28" y="134" width="344" height="37"></rect>
          </g>
          <g id="dark" transform="translate(0.000000, 200.000000)">
            <rect fill="#0e1019" x="0" y="0" width="400" height="200"></rect>
            <rect fill="#dd0000" x="28" y="28" width="74" height="37"></rect>
            <rect fill="#5a7bff" x="118" y="28" width="74" height="37"></rect>
            <rect fill="#37ddc3" x="208" y="28" width="74" height="37"></rect>
            <rect fill="#86dd94" x="298" y="28" width="74" height="37"></rect>
            <rect fill="#97a2bb" x="28" y="81" width="74" height="37"></rect>
            <rect fill="#ddc794" x="118" y="81" width="74" height="37"></rect>
            <rect fill="#8fa5ff" x="208" y="81" width="74" height="37"></rect>
            <rect fill="#ff8082" x="298" y="81" width="74" height="37"></rect>
            <rect fill="url(#shadeGradientDark)" x="28" y="134" width="344" height="37"></rect>
          </g>
        </svg>
      